# xmcd
#
# Track frame offsets:
#	150
#	11206
#	22036
#	33454
#	44930
#	55069
#	68245
#	78868
#	92540
#	102810
#	112750
#	124725
#	137581
#	149971
#	160923
#	173143
#	185087
#	196755
#	206668
#	218200
#
# Disc length: 3037 seconds
#
# Revision: 1
# Processed by: cddbd v1.5.2PL0 Copyright (c) Steve Scherf et al.
# Submitted via: audiograbber 1.83.01
#
DISCID=240bdb14
DTITLE=New Orleans Gumbo -  CD1
DYEAR=2016
DGENRE=Blues
TTITLE0=Fats Domino - Ain't That A Shame
TTITLE1=Little Richard - Tutti Frutti
TTITLE2=Dave Bartholomew - Tra-La-La
TTITLE3=Lloyd Priee Lawdy - Miss Clawdy
TTITLE4=Dave Bartholomew - My Oing-A-Ling
TTITLE5=Clarence Garlow - New Bon Ton Roulay
TTITLE6=Little Richard - Rip lt Up
TTITLE7=Guitar Slim - The Things That 1 Used To Do
TTITLE8=Fats Domino - Blue Monday
TTITLE9=Lloyd Priee - Chee Koo Baby
TTITLE10=Prolessor Long hair - Tipitina
TTITLE11=Bobby Charles - See You Later, Alligator
TTITLE12=Smiley Lewis - I Hear You Knocking
TTITLE13=Sugar Boy And His Cane Cutters - Jock-A-Mo
TTITLE14=The Spiders - 1 Oidn't Want To Do lt
TTITLE15=The Hawks - I-Yi
TTITLE16=Pee Wee Crayton - You Know Yeah
TTITLE17=The Hawketts - Mardi Gras Mambo
TTITLE18=Smiley Lewis - Real Gone Lover
TTITLE19=Bobby Mitchell - Try Rock 'n'Roll
EXTD=
EXTT0=
EXTT1=
EXTT2=
EXTT3=
EXTT4=
EXTT5=
EXTT6=
EXTT7=
EXTT8=
EXTT9=
EXTT10=
EXTT11=
EXTT12=
EXTT13=
EXTT14=
EXTT15=
EXTT16=
EXTT17=
EXTT18=
EXTT19=
PLAYORDER=
